# xmcd
#
# Track frame offsets:
#	150
#	12706
#	29329
#	46054
#	61234
#	77605
#	92653
#	107847
#	124870
#	138475
#	151811
#	166744
#	186834
#	203569
#	217401
#	226036
#	234484
#	238863
#
# Disc length: 3231 seconds
# Revision: 0
# Processed by: cddbd v1.5.2PL0 Copyright (c) Steve Scherf et al.
# Submitted via: dBpowerAMP V12.0
#
DISCID=ec0c9d12
DTITLE=Various Artist - Hold On To Your Heart
DYEAR=2020
DGENRE=Bluegrass
TTITLE0=Shannon Slaughter - You Better Hold On To Your Heart
TTITLE1=Shannon Slaughter - Stack the Bodies High
TTITLE2=Shannon Slaughter - Lonesome Wind
TTITLE3=Shannon Slaughter - Devil's Broom
TTITLE4=Shannon Slaughter - Man He's Strong
TTITLE5=Shannon Slaughter - The Hole
TTITLE6=Shannon Slaughter - Damn Short List of Things
TTITLE7=Shannon Slaughter - Running Kind
TTITLE8=Shannon Slaughter - I'll Fold My Hand
TTITLE9=Shannon Slaughter - Daddy Sang His Youth Away
TTITLE10=Shannon Slaughter - Death Angel
TTITLE11=Shannon Slaughter - Getting Older
TTITLE12=Shannon Slaughter - Blitchville
TTITLE13=Shannon Slaughter - So Were We
TTITLE14=Shannon Slaughter - River of Jordan
TTITLE15=Shannon Slaughter - Columbus Stockade Blues
TTITLE16=Shannon Slaughter feat. Jed Slaughter - Joy Joy
TTITLE17=Shannon Slaughter feat. Call Slaughter - Twinkle Twinkle Little Star
EXTD=
EXTT0=
EXTT1=
EXTT2=
EXTT3=
EXTT4=
EXTT5=
EXTT6=
EXTT7=
EXTT8=
EXTT9=
EXTT10=
EXTT11=
EXTT12=
EXTT13=
EXTT14=
EXTT15=
EXTT16=
EXTT17=
PLAYORDER=
